<svg width="25" height="26" viewBox="0 0 25 26" fill="none" xmlns="http://www.w3.org/2000/svg">
<g clip-path="url(#clip0_16_399)">
<path d="M12.478 3.11544C15.6983 3.11544 16.0796 3.12956 17.3461 3.18606C18.5231 3.23784 19.1586 3.43558 19.5823 3.60036C20.1426 3.81692 20.5475 4.08057 20.9665 4.49958C21.3902 4.92329 21.6491 5.32347 21.8657 5.88372C22.0305 6.30743 22.2282 6.94772 22.28 8.12C22.3365 9.39115 22.3506 9.77249 22.3506 12.988C22.3506 16.2083 22.3365 16.5896 22.28 17.8561C22.2282 19.033 22.0305 19.6686 21.8657 20.0923C21.6491 20.6526 21.3855 21.0575 20.9665 21.4765C20.5428 21.9002 20.1426 22.1591 19.5823 22.3757C19.1586 22.5405 18.5183 22.7382 17.3461 22.79C16.0749 22.8465 15.6936 22.8606 12.478 22.8606C9.25779 22.8606 8.87644 22.8465 7.61 22.79C6.43301 22.7382 5.79744 22.5405 5.37372 22.3757C4.81348 22.1591 4.40859 21.8955 3.98958 21.4765C3.56587 21.0528 3.30693 20.6526 3.09036 20.0923C2.92558 19.6686 2.72785 19.0283 2.67606 17.8561C2.61957 16.5849 2.60544 16.2036 2.60544 12.988C2.60544 9.76778 2.61957 9.38644 2.67606 8.12C2.72785 6.94301 2.92558 6.30743 3.09036 5.88372C3.30693 5.32347 3.57058 4.91859 3.98958 4.49958C4.4133 4.07586 4.81348 3.81692 5.37372 3.60036C5.79744 3.43558 6.43772 3.23784 7.61 3.18606C8.87644 3.12956 9.25779 3.11544 12.478 3.11544ZM12.478 0.945068C9.206 0.945068 8.79641 0.959192 7.51114 1.01569C6.23057 1.07218 5.35018 1.27933 4.58749 1.57593C3.79185 1.88666 3.11861 2.29625 2.45008 2.96949C1.77684 3.63802 1.36725 4.31126 1.05653 5.1022C0.759924 5.86959 0.552774 6.74527 0.496279 8.02584C0.439783 9.31582 0.425659 9.72541 0.425659 12.9974C0.425659 16.2695 0.439783 16.6791 0.496279 17.9643C0.552774 19.2449 0.759924 20.1253 1.05653 20.888C1.36725 21.6836 1.77684 22.3569 2.45008 23.0254C3.11861 23.6939 3.79185 24.1082 4.58279 24.4142C5.35018 24.7108 6.22586 24.918 7.50643 24.9745C8.7917 25.031 9.20129 25.0451 12.4733 25.0451C15.7454 25.0451 16.1549 25.031 17.4402 24.9745C18.7208 24.918 19.6012 24.7108 20.3639 24.4142C21.1548 24.1082 21.828 23.6939 22.4966 23.0254C23.1651 22.3569 23.5794 21.6836 23.8854 20.8927C24.182 20.1253 24.3892 19.2496 24.4457 17.969C24.5022 16.6838 24.5163 16.2742 24.5163 13.0022C24.5163 9.73012 24.5022 9.32053 24.4457 8.03525C24.3892 6.75469 24.182 5.8743 23.8854 5.11161C23.5888 4.31126 23.1792 3.63802 22.506 2.96949C21.8375 2.30096 21.1642 1.88666 20.3733 1.58064C19.6059 1.28404 18.7302 1.07689 17.4496 1.0204C16.1597 0.959192 15.7501 0.945068 12.478 0.945068Z" fill="white"/>
<path d="M12.478 6.80652C9.06004 6.80652 6.28705 9.57951 6.28705 12.9975C6.28705 16.4155 9.06004 19.1884 12.478 19.1884C15.896 19.1884 18.669 16.4155 18.669 12.9975C18.669 9.57951 15.896 6.80652 12.478 6.80652ZM12.478 17.0134C10.2606 17.0134 8.46213 15.2149 8.46213 12.9975C8.46213 10.78 10.2606 8.9816 12.478 8.9816C14.6955 8.9816 16.4939 10.78 16.4939 12.9975C16.4939 15.2149 14.6955 17.0134 12.478 17.0134Z" fill="white"/>
<path d="M20.3591 6.56156C20.3591 7.36191 19.7094 8.0069 18.9138 8.0069C18.1134 8.0069 17.4684 7.3572 17.4684 6.56156C17.4684 5.7612 18.1181 5.11621 18.9138 5.11621C19.7094 5.11621 20.3591 5.76591 20.3591 6.56156Z" fill="white"/>
</g>
<defs>
<clipPath id="clip0_16_399">
<rect width="24.1047" height="24.1047" fill="white" transform="translate(0.425659 0.945068)"/>
</clipPath>
</defs>
</svg>
