<svg width="25" height="25" viewBox="0 0 25 25" fill="none" xmlns="http://www.w3.org/2000/svg">
<g clip-path="url(#clip0_16_398)">
<path d="M22.4816 0.89502H1.94074C0.956778 0.89502 0.161133 1.67183 0.161133 2.63226V23.2578C0.161133 24.2182 0.956778 24.9998 1.94074 24.9998H22.4816C23.4655 24.9998 24.2659 24.2182 24.2659 23.2625V2.63226C24.2659 1.67183 23.4655 0.89502 22.4816 0.89502ZM7.31252 21.4358H3.73447V9.92959H7.31252V21.4358ZM5.5235 8.36184C4.37476 8.36184 3.44729 7.43437 3.44729 6.29034C3.44729 5.14631 4.37476 4.21884 5.5235 4.21884C6.66753 4.21884 7.595 5.14631 7.595 6.29034C7.595 7.42967 6.66753 8.36184 5.5235 8.36184ZM20.702 21.4358H17.1286V15.8428C17.1286 14.5104 17.1051 12.792 15.269 12.792C13.4093 12.792 13.1268 14.2468 13.1268 15.7486V21.4358H9.55822V9.92959H12.9856V11.502H13.0327C13.5082 10.5981 14.6758 9.64241 16.413 9.64241C20.0334 9.64241 20.702 12.0246 20.702 15.1225V21.4358Z" fill="white"/>
</g>
<defs>
<clipPath id="clip0_16_398">
<rect width="24.1047" height="24.1047" fill="white" transform="translate(0.161133 0.89502)"/>
</clipPath>
</defs>
</svg>
