<svg width="25" height="25" viewBox="0 0 25 25" fill="none" xmlns="http://www.w3.org/2000/svg">
<g clip-path="url(#clip0_16_400)">
<path d="M8.27329 21.8399C17.3672 21.8399 22.3426 14.3038 22.3426 7.77059C22.3426 7.55874 22.3378 7.34217 22.3284 7.13031C23.2963 6.43037 24.1315 5.5634 24.7949 4.57012C23.8935 4.97117 22.9365 5.23309 21.9565 5.34694C22.9884 4.72842 23.761 3.75676 24.1311 2.61208C23.1604 3.18737 22.0988 3.59319 20.9918 3.81214C20.246 3.01965 19.2599 2.49492 18.1859 2.31909C17.1119 2.14327 16.0099 2.32612 15.0503 2.8394C14.0907 3.35268 13.3269 4.16778 12.877 5.15869C12.4271 6.14961 12.3161 7.26113 12.5613 8.32143C10.5957 8.22279 8.67281 7.71218 6.91723 6.82271C5.16164 5.93324 3.61258 4.68476 2.37046 3.15821C1.73914 4.24666 1.54596 5.53466 1.83017 6.76043C2.11438 7.98621 2.85465 9.05777 3.90054 9.75735C3.11535 9.73242 2.34736 9.52102 1.66002 9.14061V9.20181C1.65932 10.3441 2.05421 11.4513 2.77757 12.3353C3.50092 13.2194 4.5081 13.8256 5.62789 14.051C4.90054 14.25 4.13715 14.279 3.39679 14.1358C3.71277 15.1181 4.32756 15.9773 5.15536 16.5934C5.98315 17.2095 6.98265 17.5518 8.01436 17.5726C6.26283 18.9484 4.09917 19.6947 1.87188 19.6911C1.47689 19.6905 1.08229 19.6663 0.690186 19.6186C2.95287 21.0703 5.58499 21.8413 8.27329 21.8399Z" fill="white"/>
</g>
<defs>
<clipPath id="clip0_16_400">
<rect width="24.1047" height="24.1047" fill="white" transform="translate(0.690186 -0.00488281)"/>
</clipPath>
</defs>
</svg>
